<svg xmlns="http://www.w3.org/2000/svg" version="1.1" xmlns:xlink="http://www.w3.org/1999/xlink" xmlns:svgjs="http://svgjs.com/svgjs" width="256" height="256"><svg id="SvgjsSvg1000" data-name="Layer 1" xmlns="http://www.w3.org/2000/svg" viewBox="0 0 256 256"><defs><style>.cls-1{fill:#6da9dc;}.cls-2{fill:#231f20;}</style></defs><path class="cls-1" d="M31.08,161.12,46.13,66.46,32,64.22l5.21-32.75,73.86,11.74,15.62,92.92,43.66-83.49,73.86,11.74L239,97.13l-14.11-2.25-15,94.66L224,191.78l-5.21,32.75-66.69-10.6,5.21-32.75,12.43,2L184,93.52l-49.5,95.55-31.56-5L85.49,77.86,71.23,167.5l12.43,2-5.2,32.74-66.69-10.6L17,158.87Z"></path><path class="cls-2" d="M218.77,227a2.56,2.56,0,0,1-.39,0l-66.69-10.6a2.51,2.51,0,0,1-2.08-2.86l5.21-32.75a2.49,2.49,0,0,1,2.86-2.08l10,1.58,11.43-71.88-42.39,81.81a2.49,2.49,0,0,1-2.61,1.32l-31.55-5a2.49,2.49,0,0,1-2.07-2.06L85.52,93.54,74.1,165.42l10,1.59a2.48,2.48,0,0,1,1.63,1,2.45,2.45,0,0,1,.44,1.86l-5.2,32.75a2.5,2.5,0,0,1-2.86,2.07l-66.69-10.6a2.48,2.48,0,0,1-1.64-1,2.52,2.52,0,0,1-.44-1.86l5.21-32.75a2.51,2.51,0,0,1,2.86-2.08L29,158.25,43.26,68.54,31.63,66.69a2.51,2.51,0,0,1-2.08-2.87l5.21-32.74A2.5,2.5,0,0,1,37.62,29l73.86,11.74a2.52,2.52,0,0,1,2.08,2.06l14.38,85.58,40.22-76.9a2.48,2.48,0,0,1,2.6-1.31l73.86,11.74a2.5,2.5,0,0,1,2.08,2.86l-5.21,32.75a2.51,2.51,0,0,1-2.86,2.08L227,97.75l-14.26,89.71,11.63,1.85a2.52,2.52,0,0,1,2.08,2.87l-5.21,32.74a2.44,2.44,0,0,1-1,1.63A2.46,2.46,0,0,1,218.77,227Zm-63.83-15.18,61.75,9.82,4.43-27.81L209.48,192a2.5,2.5,0,0,1-2.07-2.86l15-94.66a2.56,2.56,0,0,1,1-1.63,2.47,2.47,0,0,1,1.86-.44L237,94.27l4.42-27.81L171.75,55.39l-42.83,81.9a2.5,2.5,0,0,1-4.68-.75L108.92,45.4,39.31,34.33,34.88,62.14,46.52,64a2.5,2.5,0,0,1,2.07,2.86l-15,94.66a2.56,2.56,0,0,1-1,1.63,2.49,2.49,0,0,1-1.87.44l-11.63-1.85-4.42,27.81,61.75,9.82,4.42-27.81-10-1.58a2.52,2.52,0,0,1-1.63-1,2.47,2.47,0,0,1-.44-1.86L83,77.47a2.5,2.5,0,0,1,2.46-2.11h0A2.5,2.5,0,0,1,88,77.46l17.14,104.41,28,4.45,48.67-93.95a2.5,2.5,0,0,1,4.69,1.54l-14.26,89.64a2.5,2.5,0,0,1-2.86,2.08l-10-1.59Z"></path></svg></svg>