<?xml version="1.0" standalone="no"?>
<!DOCTYPE svg PUBLIC "-//W3C//DTD SVG 20010904//EN"
 "http://www.w3.org/TR/2001/REC-SVG-20010904/DTD/svg10.dtd">
<svg version="1.0" xmlns="http://www.w3.org/2000/svg"
 width="700.000000pt" height="700.000000pt" viewBox="0 0 700.000000 700.000000"
 preserveAspectRatio="xMidYMid meet">
<metadata>
Created by potrace 1.14, written by Peter Selinger 2001-2017
</metadata>
<g transform="translate(0.000000,700.000000) scale(0.100000,-0.100000)"
fill="#000000" stroke="none">
<path d="M606 5777 c-16 -5 -29 -19 -33 -35 -4 -15 -7 -237 -7 -493 0 -443 1
-467 19 -485 16 -17 37 -19 169 -21 83 -1 162 -2 176 -2 l26 -1 0 -1240 0
-1240 -36 -1 c-19 0 -96 0 -170 0 -139 -1 -158 -5 -176 -44 -6 -12 -9 -209 -9
-489 l1 -469 25 -21 25 -21 948 0 948 0 19 24 c18 22 19 45 19 498 l0 474 -23
23 c-23 23 -31 24 -167 24 -78 1 -145 4 -149 7 -3 4 -6 447 -6 985 0 539 3
976 6 972 3 -4 145 -425 314 -937 169 -511 345 -1042 391 -1180 45 -137 91
-260 102 -272 l20 -23 460 0 c424 0 461 1 480 18 13 11 52 113 113 297 51 154
94 282 94 285 4 22 599 1807 604 1812 3 4 6 -434 6 -972 -1 -539 -4 -982 -7
-985 -3 -4 -70 -7 -149 -7 -135 -1 -144 -2 -166 -24 l-23 -23 0 -474 c0 -453
1 -476 19 -498 l19 -24 951 0 950 0 23 22 22 22 1 463 c0 255 -3 475 -8 490
-13 39 -47 47 -215 47 -85 0 -157 3 -160 6 -4 4 -7 562 -7 1241 l-1 1234 36 1
c19 0 97 1 172 1 149 0 163 4 176 53 4 17 7 237 7 489 l-1 459 -25 21 -25 21
-1046 0 c-918 0 -1049 -2 -1062 -15 -12 -12 -136 -357 -151 -420 -2 -8 -128
-384 -280 -835 -152 -451 -291 -865 -309 -919 -20 -59 -36 -94 -40 -87 -5 7
-18 45 -31 84 -32 101 -711 2116 -723 2149 -6 14 -17 30 -24 34 -17 11 -2079
12 -2112 1z"/>
</g>
</svg>
